<svg width="183" height="23" viewBox="0 0 183 23" fill="none" xmlns="http://www.w3.org/2000/svg">
<path d="M1.08 13.4L0.696 11.432C0.536 10.6 0.704 9.784 1.2 8.984C2.432 7.064 3.4 4.608 4.104 1.616C4.184 1.248 4.376 0.967999 4.68 0.775999C5 0.567999 5.344 0.495999 5.712 0.559999L6.528 0.704C6.912 0.783999 7.208 0.975999 7.416 1.28C7.48 1.376 7.56 1.376 7.656 1.28C7.912 1.072 8.208 0.967999 8.544 0.967999H22.152C22.52 0.967999 22.84 1.104 23.112 1.376C23.384 1.632 23.52 1.944 23.52 2.312V2.528C23.52 2.896 23.384 3.216 23.112 3.488C22.84 3.744 22.52 3.872 22.152 3.872H17.256C17.128 3.872 17.064 3.944 17.064 4.088V4.76C17.064 4.888 17.128 4.952 17.256 4.952H21.456C21.824 4.952 22.144 5.088 22.416 5.36C22.688 5.632 22.824 5.952 22.824 6.32V14.48C22.824 14.848 22.688 15.168 22.416 15.44C22.144 15.712 21.824 15.848 21.456 15.848H20.496C20.192 15.848 19.928 15.744 19.704 15.536C19.496 15.312 19.392 15.04 19.392 14.72C19.392 14.608 19.336 14.552 19.224 14.552H16.848C16.72 14.552 16.64 14.632 16.608 14.792C16.432 15.768 16.144 16.704 15.744 17.6C15.728 17.648 15.736 17.696 15.768 17.744C15.8 17.792 15.84 17.824 15.888 17.84C17.68 18.432 19.832 18.8 22.344 18.944C22.712 18.976 23.016 19.128 23.256 19.4C23.496 19.672 23.584 19.984 23.52 20.336L23.424 20.888C23.36 21.272 23.176 21.584 22.872 21.824C22.584 22.064 22.248 22.176 21.864 22.16C18.872 21.968 16.168 21.36 13.752 20.336C13.624 20.288 13.512 20.296 13.416 20.36C12.504 20.968 11.16 21.488 9.384 21.92C9 22.016 8.64 21.968 8.304 21.776C7.968 21.584 7.736 21.304 7.608 20.936L7.416 20.456C7.288 20.12 7.312 19.792 7.488 19.472C7.664 19.136 7.928 18.92 8.28 18.824C8.936 18.648 9.504 18.472 9.984 18.296C10.112 18.264 10.128 18.2 10.032 18.104C9.488 17.64 9.016 17.184 8.616 16.736C8.376 16.464 8.288 16.152 8.352 15.8C8.432 15.432 8.632 15.16 8.952 14.984L9.504 14.672C9.52 14.656 9.528 14.632 9.528 14.6C9.528 14.568 9.512 14.552 9.48 14.552H8.952C8.584 14.552 8.264 14.424 7.992 14.168C7.72 13.896 7.584 13.576 7.584 13.208V6.32C7.584 5.952 7.72 5.632 7.992 5.36C8.264 5.088 8.584 4.952 8.952 4.952H13.224C13.368 4.952 13.44 4.888 13.44 4.76V4.088C13.44 3.944 13.368 3.872 13.224 3.872H8.544C8.128 3.872 7.792 3.728 7.536 3.44C7.52 3.408 7.488 3.4 7.44 3.416C7.408 3.416 7.384 3.432 7.368 3.464C7.112 4.52 6.84 5.424 6.552 6.176C6.52 6.256 6.504 6.384 6.504 6.56V20.96C6.504 21.328 6.368 21.648 6.096 21.92C5.824 22.192 5.504 22.328 5.136 22.328H4.32C3.952 22.328 3.632 22.192 3.36 21.92C3.088 21.648 2.952 21.328 2.952 20.96V12.68C2.952 12.648 2.936 12.632 2.904 12.632C2.888 12.616 2.872 12.616 2.856 12.632C2.568 13.112 2.344 13.456 2.184 13.664C2.024 13.888 1.808 13.968 1.536 13.904C1.28 13.84 1.128 13.672 1.08 13.4ZM12.696 15.968C12.84 15.584 12.96 15.184 13.056 14.768C13.088 14.624 13.04 14.552 12.912 14.552H11.232C11.2 14.552 11.168 14.576 11.136 14.624C11.12 14.656 11.12 14.688 11.136 14.72C11.488 15.168 11.928 15.6 12.456 16.016C12.552 16.112 12.632 16.096 12.696 15.968ZM13.368 11.792C13.368 11.712 13.376 11.592 13.392 11.432C13.408 11.256 13.416 11.12 13.416 11.024C13.416 10.896 13.344 10.832 13.2 10.832H11.136C10.992 10.832 10.92 10.896 10.92 11.024V11.792C10.92 11.936 10.992 12.008 11.136 12.008H13.176C13.304 12.008 13.368 11.936 13.368 11.792ZM13.44 7.856V7.736C13.44 7.592 13.368 7.52 13.224 7.52H11.136C10.992 7.52 10.92 7.592 10.92 7.736V8.456C10.92 8.6 10.992 8.672 11.136 8.672H13.224C13.368 8.672 13.44 8.6 13.44 8.456V7.856ZM17.064 7.856V8.456C17.064 8.6 17.128 8.672 17.256 8.672H19.176C19.32 8.672 19.392 8.6 19.392 8.456V7.736C19.392 7.592 19.32 7.52 19.176 7.52H17.256C17.128 7.52 17.064 7.592 17.064 7.736V7.856ZM16.992 11C16.992 11.08 16.984 11.208 16.968 11.384C16.952 11.56 16.944 11.696 16.944 11.792C16.944 11.936 17.008 12.008 17.136 12.008H19.176C19.32 12.008 19.392 11.936 19.392 11.792V11.024C19.392 10.896 19.32 10.832 19.176 10.832H17.208C17.064 10.832 16.992 10.888 16.992 11ZM26.184 18.728L25.68 17.888C25.232 17.12 25.272 16.376 25.8 15.656C27.016 14.008 27.928 12.248 28.536 10.376C28.568 10.232 28.528 10.16 28.416 10.16H26.88C26.512 10.16 26.192 10.024 25.92 9.752C25.664 9.48 25.536 9.16 25.536 8.792V8.408C25.536 8.04 25.664 7.72 25.92 7.448C26.192 7.176 26.512 7.04 26.88 7.04H29.184C29.312 7.04 29.376 6.968 29.376 6.824V4.496C29.376 4.368 29.32 4.304 29.208 4.304C29 4.32 28.688 4.344 28.272 4.376C27.872 4.392 27.568 4.408 27.36 4.424C26.976 4.456 26.64 4.352 26.352 4.112C26.064 3.856 25.904 3.536 25.872 3.152L25.848 2.936C25.816 2.568 25.92 2.248 26.16 1.976C26.4 1.688 26.704 1.528 27.072 1.496C29.552 1.32 32.056 0.991999 34.584 0.511999C34.968 0.431999 35.328 0.487999 35.664 0.679998C36.016 0.871999 36.256 1.152 36.384 1.52L36.48 1.784C36.608 2.136 36.576 2.48 36.384 2.816C36.208 3.136 35.944 3.328 35.592 3.392C35.272 3.472 34.448 3.616 33.12 3.824C32.976 3.856 32.904 3.936 32.904 4.064V6.824C32.904 6.968 32.976 7.04 33.12 7.04H35.616C35.984 7.04 36.304 7.176 36.576 7.448C36.848 7.72 36.984 8.04 36.984 8.408V8.792C36.984 9.16 36.848 9.48 36.576 9.752C36.304 10.024 35.984 10.16 35.616 10.16H34.032C33.904 10.16 33.88 10.216 33.96 10.328C34.296 10.872 35.16 12.288 36.552 14.576C36.744 14.912 36.8 15.264 36.72 15.632C36.656 16 36.472 16.304 36.168 16.544L35.832 16.808C35.56 17.016 35.256 17.088 34.92 17.024C34.6 16.944 34.368 16.744 34.224 16.424L33 13.76C32.984 13.728 32.96 13.712 32.928 13.712C32.912 13.712 32.904 13.728 32.904 13.76V20.96C32.904 21.328 32.768 21.648 32.496 21.92C32.224 22.192 31.904 22.328 31.536 22.328H30.744C30.376 22.328 30.056 22.192 29.784 21.92C29.512 21.648 29.376 21.328 29.376 20.96V15.176C29.376 15.112 29.36 15.112 29.328 15.176C28.848 16.568 28.296 17.768 27.672 18.776C27.496 19.048 27.248 19.176 26.928 19.16C26.608 19.144 26.36 19 26.184 18.728ZM39.36 16.928C38.992 16.928 38.672 16.792 38.4 16.52C38.128 16.248 37.992 15.928 37.992 15.56V3.008C37.992 2.64 38.128 2.32 38.4 2.048C38.672 1.776 38.992 1.64 39.36 1.64H40.008C40.376 1.64 40.696 1.776 40.968 2.048C41.24 2.32 41.376 2.64 41.376 3.008V15.56C41.376 15.928 41.24 16.248 40.968 16.52C40.696 16.792 40.376 16.928 40.008 16.928H39.36ZM45.696 0.679998C46.064 0.679998 46.384 0.815999 46.656 1.088C46.928 1.36 47.064 1.68 47.064 2.048V17.888C47.064 18.624 47.048 19.2 47.016 19.616C47 20.032 46.944 20.424 46.848 20.792C46.752 21.16 46.64 21.416 46.512 21.56C46.384 21.72 46.16 21.856 45.84 21.968C45.536 22.096 45.216 22.168 44.88 22.184C44.544 22.216 44.072 22.232 43.464 22.232C42.696 22.232 41.92 22.216 41.136 22.184C40.752 22.168 40.424 22.024 40.152 21.752C39.88 21.48 39.728 21.152 39.696 20.768L39.648 20.216C39.632 19.864 39.752 19.56 40.008 19.304C40.264 19.032 40.576 18.904 40.944 18.92C41.808 18.968 42.352 18.992 42.576 18.992C42.976 18.992 43.216 18.944 43.296 18.848C43.392 18.752 43.44 18.472 43.44 18.008V2.048C43.44 1.68 43.568 1.36 43.824 1.088C44.096 0.815999 44.416 0.679998 44.784 0.679998H45.696ZM50.544 21.224L49.704 20.096C49.192 19.424 49.112 18.656 49.464 17.792C49.944 16.672 50.28 15.392 50.472 13.952C50.664 12.512 50.76 10.56 50.76 8.096V2.288C50.76 1.92 50.896 1.6 51.168 1.328C51.44 1.056 51.76 0.92 52.128 0.92H69.048C69.416 0.92 69.736 1.056 70.008 1.328C70.28 1.6 70.416 1.92 70.416 2.288V5.888C70.416 6.256 70.28 6.576 70.008 6.848C69.736 7.12 69.416 7.256 69.048 7.256H54.528C54.4 7.256 54.336 7.328 54.336 7.472V8.024C54.336 8.152 54.4 8.2 54.528 8.168H54.768H69.6C69.968 8.168 70.28 8.296 70.536 8.552C70.792 8.808 70.92 9.112 70.92 9.464C70.92 9.832 70.784 10.144 70.512 10.4C70.256 10.656 69.952 10.784 69.6 10.784H68.712C68.584 10.784 68.56 10.84 68.64 10.952C69.488 12.04 70.008 12.712 70.2 12.968C70.408 13.256 70.464 13.576 70.368 13.928C70.288 14.28 70.088 14.536 69.768 14.696L69.216 14.96C68.864 15.12 68.496 15.16 68.112 15.08C67.744 14.984 67.448 14.776 67.224 14.456C67.208 14.44 67.2 14.432 67.2 14.432C67.2 14.4 67.192 14.384 67.176 14.384C67.08 14.272 66.976 14.224 66.864 14.24C65.6 14.368 64.704 14.456 64.176 14.504C64.048 14.504 63.984 14.576 63.984 14.72V15.536C63.984 15.664 64.056 15.728 64.2 15.728H68.664C69.016 15.728 69.312 15.856 69.552 16.112C69.808 16.352 69.936 16.648 69.936 17C69.936 17.352 69.808 17.648 69.552 17.888C69.312 18.128 69.016 18.248 68.664 18.248H64.2C64.056 18.248 63.984 18.32 63.984 18.464V18.92C63.984 19.048 64.056 19.112 64.2 19.112H69.816C70.184 19.112 70.504 19.248 70.776 19.52C71.048 19.792 71.184 20.112 71.184 20.48V20.648C71.184 21.016 71.048 21.328 70.776 21.584C70.504 21.856 70.184 21.992 69.816 21.992H54.288C53.92 21.992 53.6 21.856 53.328 21.584C53.056 21.328 52.92 21.016 52.92 20.648V20.48C52.92 20.112 53.056 19.792 53.328 19.52C53.6 19.248 53.92 19.112 54.288 19.112H59.952C60.096 19.112 60.168 19.048 60.168 18.92V18.464C60.168 18.32 60.096 18.248 59.952 18.248H55.848C55.496 18.248 55.192 18.128 54.936 17.888C54.696 17.648 54.576 17.352 54.576 17C54.576 16.648 54.696 16.352 54.936 16.112C55.192 15.856 55.496 15.728 55.848 15.728H59.952C60.096 15.728 60.168 15.664 60.168 15.536V15.032C60.168 14.904 60.104 14.84 59.976 14.84C59.128 14.904 57.856 14.968 56.16 15.032C55.792 15.048 55.472 14.936 55.2 14.696C54.944 14.44 54.8 14.128 54.768 13.76C54.752 13.408 54.856 13.104 55.08 12.848C55.32 12.576 55.624 12.432 55.992 12.416H56.112C56.24 12.416 56.344 12.352 56.424 12.224C56.824 11.504 57.056 11.08 57.12 10.952C57.136 10.92 57.128 10.888 57.096 10.856C57.08 10.808 57.048 10.784 57 10.784H54.768C54.656 10.784 54.576 10.776 54.528 10.76C54.4 10.728 54.336 10.776 54.336 10.904C54.336 13.176 54.16 15.112 53.808 16.712C53.456 18.312 52.888 19.792 52.104 21.152C51.944 21.44 51.696 21.592 51.36 21.608C51.024 21.624 50.752 21.496 50.544 21.224ZM60.384 12.008C60.352 12.04 60.344 12.08 60.36 12.128C60.392 12.16 60.432 12.176 60.48 12.176C62.56 12.048 64.08 11.936 65.04 11.84C65.168 11.84 65.192 11.776 65.112 11.648C65.048 11.568 64.952 11.456 64.824 11.312C64.696 11.152 64.6 11.032 64.536 10.952C64.456 10.84 64.344 10.784 64.2 10.784H61.224C61.08 10.784 60.984 10.84 60.936 10.952C60.776 11.272 60.592 11.624 60.384 12.008ZM54.336 3.896V4.544C54.336 4.688 54.4 4.76 54.528 4.76H66.456C66.6 4.76 66.672 4.688 66.672 4.544V3.896C66.672 3.768 66.6 3.704 66.456 3.704H54.528C54.4 3.704 54.336 3.768 54.336 3.896Z" fill="black"/>
<path d="M79.0558 21.5C78.6264 21.5 78.2531 21.3413 77.9358 21.024C77.6371 20.7067 77.4878 20.3333 77.4878 19.904V2.656C77.4878 2.22667 77.6371 1.85333 77.9358 1.536C78.2531 1.21867 78.6264 1.06 79.0558 1.06H88.9678C89.3971 1.06 89.7611 1.21867 90.0598 1.536C90.3771 1.85333 90.5358 2.22667 90.5358 2.656V3.3C90.5358 3.72933 90.3771 4.10267 90.0598 4.42C89.7611 4.73733 89.3971 4.896 88.9678 4.896H82.4718C82.3224 4.896 82.2478 4.97067 82.2478 5.12V8.816C82.2478 8.984 82.3224 9.068 82.4718 9.068H88.4078C88.8371 9.068 89.2011 9.22667 89.4998 9.544C89.8171 9.86133 89.9758 10.2347 89.9758 10.664V11.084C89.9758 11.5133 89.8171 11.8867 89.4998 12.204C89.2011 12.5213 88.8371 12.68 88.4078 12.68H82.4718C82.3224 12.68 82.2478 12.7547 82.2478 12.904V17.44C82.2478 17.5893 82.3224 17.664 82.4718 17.664H88.9678C89.3971 17.664 89.7611 17.8227 90.0598 18.14C90.3771 18.4573 90.5358 18.8307 90.5358 19.26V19.904C90.5358 20.3333 90.3771 20.7067 90.0598 21.024C89.7611 21.3413 89.3971 21.5 88.9678 21.5H79.0558ZM104.525 21.78C101.464 21.78 99.0562 20.8747 97.3015 19.064C95.5468 17.2533 94.6695 14.6587 94.6695 11.28C94.6695 7.95733 95.5188 5.38133 97.2175 3.552C98.9162 1.704 101.287 0.78 104.329 0.78C105.785 0.78 107.055 0.882666 108.137 1.088C108.585 1.16267 108.949 1.38667 109.229 1.76C109.509 2.13333 109.649 2.55333 109.649 3.02V3.916C109.649 4.308 109.491 4.616 109.173 4.84C108.856 5.064 108.511 5.12933 108.137 5.036C107.073 4.756 105.991 4.616 104.889 4.616C103.209 4.616 101.893 5.18533 100.941 6.324C100.008 7.46267 99.5415 9.11467 99.5415 11.28C99.5415 13.408 100.045 15.06 101.053 16.236C102.061 17.412 103.405 18 105.085 18C106.205 18 107.297 17.86 108.361 17.58C108.735 17.4867 109.08 17.552 109.397 17.776C109.733 18 109.901 18.308 109.901 18.7V19.54C109.901 20.0067 109.752 20.4267 109.453 20.8C109.173 21.1733 108.809 21.3973 108.361 21.472C107.26 21.6773 105.981 21.78 104.525 21.78ZM127.898 11.28C127.898 6.89333 126.33 4.7 123.194 4.7C120.058 4.7 118.49 6.89333 118.49 11.28C118.49 15.6667 120.058 17.86 123.194 17.86C126.33 17.86 127.898 15.6667 127.898 11.28ZM130.194 19.008C128.476 20.856 126.143 21.78 123.194 21.78C120.244 21.78 117.911 20.856 116.194 19.008C114.476 17.1413 113.618 14.5653 113.618 11.28C113.618 7.99467 114.476 5.428 116.194 3.58C117.911 1.71333 120.244 0.78 123.194 0.78C126.143 0.78 128.476 1.71333 130.194 3.58C131.911 5.428 132.77 7.99467 132.77 11.28C132.77 14.5653 131.911 17.1413 130.194 19.008Z" fill="#3BAE41"/>
<path d="M138.33 11.452C137.931 11.452 137.585 11.3047 137.29 11.01C136.995 10.7153 136.848 10.3687 136.848 9.97V2.898C136.848 2.49933 136.995 2.16133 137.29 1.884C137.585 1.58933 137.931 1.442 138.33 1.442H155.802C156.201 1.442 156.539 1.58933 156.816 1.884C157.111 2.16133 157.258 2.49933 157.258 2.898V7.448C157.258 11.712 156.053 15.0227 153.644 17.38C151.252 19.7373 147.534 21.1327 142.49 21.566C142.074 21.6007 141.701 21.488 141.372 21.228C141.06 20.968 140.869 20.63 140.8 20.214L140.67 19.252C140.618 18.8533 140.713 18.498 140.956 18.186C141.216 17.874 141.537 17.7007 141.918 17.666C145.957 17.2673 148.808 16.2793 150.472 14.702C152.136 13.1247 152.968 10.7067 152.968 7.448V5.654C152.968 5.498 152.89 5.42 152.734 5.42H141.268C141.129 5.42 141.06 5.498 141.06 5.654V9.97C141.06 10.3687 140.913 10.7153 140.618 11.01C140.323 11.3047 139.977 11.452 139.578 11.452H138.33ZM162.562 5.134C162.198 4.96067 161.955 4.68333 161.834 4.302C161.713 3.92067 161.747 3.55667 161.938 3.21L162.536 2.04C162.727 1.676 163.013 1.43333 163.394 1.312C163.793 1.17333 164.183 1.19067 164.564 1.364C166.349 2.21333 168.178 3.12333 170.05 4.094C170.414 4.26733 170.648 4.55333 170.752 4.952C170.873 5.35067 170.839 5.72333 170.648 6.07L169.972 7.24C169.781 7.58667 169.487 7.82067 169.088 7.942C168.707 8.06333 168.334 8.02867 167.97 7.838C166.167 6.902 164.365 6.00067 162.562 5.134ZM181.022 3.86C181.421 3.94667 181.733 4.16333 181.958 4.51C182.183 4.83933 182.253 5.20333 182.166 5.602C181.143 10.1607 179.133 13.7053 176.134 16.236C173.153 18.7667 169.079 20.3527 163.914 20.994C163.498 21.046 163.125 20.942 162.796 20.682C162.467 20.4393 162.267 20.11 162.198 19.694L162.016 18.498C161.947 18.1167 162.033 17.77 162.276 17.458C162.519 17.1287 162.839 16.938 163.238 16.886C167.467 16.2967 170.761 15.04 173.118 13.116C175.493 11.192 177.165 8.39267 178.136 4.718C178.24 4.31933 178.457 4.016 178.786 3.808C179.133 3.58267 179.505 3.51333 179.904 3.6L181.022 3.86Z" fill="#3BAE41"/>
</svg>
